<svg xmlns="http://www.w3.org/2000/svg" viewBox="0 0 41.254 37.667">
  <defs>
    <style>
      .cls-1 {
        fill: #fff;
      }
    </style>
  </defs>
  <path id="ic_add_a_photo_24px" class="cls-1" d="M5.381,6.381V1H8.968V6.381h5.381V9.968H8.968v5.381H5.381V9.968H0V6.381Zm5.381,10.762V11.762h5.381V6.381H28.7l3.282,3.587h5.686a3.6,3.6,0,0,1,3.587,3.587V35.079a3.6,3.6,0,0,1-3.587,3.587H8.968a3.6,3.6,0,0,1-3.587-3.587V17.143ZM23.317,33.286a8.968,8.968,0,1,0-8.968-8.968A8.972,8.972,0,0,0,23.317,33.286Zm-5.74-8.968a5.74,5.74,0,1,0,5.74-5.74,5.734,5.734,0,0,0-5.74,5.74Z" transform="translate(0 -1)"/>
</svg>
